M48
; DRILL file {KiCad 8.0.4} date 2024-08-29T23:22:21+0530
; FORMAT={-:-/ absolute / metric / decimal}
; #@! TF.CreationDate,2024-08-29T23:22:21+05:30
; #@! TF.GenerationSoftware,Kicad,Pcbnew,8.0.4
; #@! TF.FileFunction,Plated,1,2,PTH
FMAT,2
METRIC
; #@! TA.AperFunction,Plated,PTH,ComponentDrill
T1C0.800
; #@! TA.AperFunction,Plated,PTH,ComponentDrill
T2C0.900
; #@! TA.AperFunction,Plated,PTH,ComponentDrill
T3C1.200
; #@! TA.AperFunction,Plated,PTH,ComponentDrill
T4C1.300
%
G90
G05
T1
X161.38Y-132.38
X161.38Y-134.92
X161.38Y-137.46
X161.38Y-140.0
X161.5Y-148.0
X161.69Y-144.0
X162.5Y-126.0
X162.5Y-128.5
X166.5Y-148.0
X167.795Y-127.0
X169.0Y-132.38
X169.0Y-134.92
X169.0Y-137.46
X169.0Y-140.0
X169.31Y-144.0
X170.295Y-127.0
X174.5Y-127.0
X175.0Y-134.682
X175.0Y-137.182
X177.0Y-127.0
X177.5Y-142.847
X177.5Y-146.347
X181.0Y-133.0
X181.0Y-138.0
X185.88Y-127.0
X193.5Y-127.0
T2
X180.5Y-127.0
X183.04Y-127.0
T3
X155.2Y-127.25
X155.2Y-130.75
X189.0Y-133.0
X189.0Y-136.5
X189.0Y-141.0
X189.0Y-144.5
T4
X152.0Y-136.5
X152.0Y-141.5
X152.0Y-146.5
M30
