%TF.GenerationSoftware,KiCad,Pcbnew,8.0.4*%
%TF.CreationDate,2024-08-29T23:22:00+05:30*%
%TF.ProjectId,LM386 Amp,4c4d3338-3620-4416-9d70-2e6b69636164,rev?*%
%TF.SameCoordinates,Original*%
%TF.FileFunction,Legend,Bot*%
%TF.FilePolarity,Positive*%
%FSLAX46Y46*%
G04 Gerber Fmt 4.6, Leading zero omitted, Abs format (unit mm)*
G04 Created by KiCad (PCBNEW 8.0.4) date 2024-08-29 23:22:00*
%MOMM*%
%LPD*%
G01*
G04 APERTURE LIST*
%ADD10C,0.100000*%
G04 APERTURE END LIST*
D10*
X158743734Y-134324800D02*
X158600877Y-134372419D01*
X158600877Y-134372419D02*
X158362782Y-134372419D01*
X158362782Y-134372419D02*
X158267544Y-134324800D01*
X158267544Y-134324800D02*
X158219925Y-134277180D01*
X158219925Y-134277180D02*
X158172306Y-134181942D01*
X158172306Y-134181942D02*
X158172306Y-134086704D01*
X158172306Y-134086704D02*
X158219925Y-133991466D01*
X158219925Y-133991466D02*
X158267544Y-133943847D01*
X158267544Y-133943847D02*
X158362782Y-133896228D01*
X158362782Y-133896228D02*
X158553258Y-133848609D01*
X158553258Y-133848609D02*
X158648496Y-133800990D01*
X158648496Y-133800990D02*
X158696115Y-133753371D01*
X158696115Y-133753371D02*
X158743734Y-133658133D01*
X158743734Y-133658133D02*
X158743734Y-133562895D01*
X158743734Y-133562895D02*
X158696115Y-133467657D01*
X158696115Y-133467657D02*
X158648496Y-133420038D01*
X158648496Y-133420038D02*
X158553258Y-133372419D01*
X158553258Y-133372419D02*
X158315163Y-133372419D01*
X158315163Y-133372419D02*
X158172306Y-133420038D01*
X157743734Y-134372419D02*
X157743734Y-133705752D01*
X157743734Y-133372419D02*
X157791353Y-133420038D01*
X157791353Y-133420038D02*
X157743734Y-133467657D01*
X157743734Y-133467657D02*
X157696115Y-133420038D01*
X157696115Y-133420038D02*
X157743734Y-133372419D01*
X157743734Y-133372419D02*
X157743734Y-133467657D01*
X156838973Y-133705752D02*
X156838973Y-134515276D01*
X156838973Y-134515276D02*
X156886592Y-134610514D01*
X156886592Y-134610514D02*
X156934211Y-134658133D01*
X156934211Y-134658133D02*
X157029449Y-134705752D01*
X157029449Y-134705752D02*
X157172306Y-134705752D01*
X157172306Y-134705752D02*
X157267544Y-134658133D01*
X156838973Y-134324800D02*
X156934211Y-134372419D01*
X156934211Y-134372419D02*
X157124687Y-134372419D01*
X157124687Y-134372419D02*
X157219925Y-134324800D01*
X157219925Y-134324800D02*
X157267544Y-134277180D01*
X157267544Y-134277180D02*
X157315163Y-134181942D01*
X157315163Y-134181942D02*
X157315163Y-133896228D01*
X157315163Y-133896228D02*
X157267544Y-133800990D01*
X157267544Y-133800990D02*
X157219925Y-133753371D01*
X157219925Y-133753371D02*
X157124687Y-133705752D01*
X157124687Y-133705752D02*
X156934211Y-133705752D01*
X156934211Y-133705752D02*
X156838973Y-133753371D01*
X156362782Y-133705752D02*
X156362782Y-134372419D01*
X156362782Y-133800990D02*
X156315163Y-133753371D01*
X156315163Y-133753371D02*
X156219925Y-133705752D01*
X156219925Y-133705752D02*
X156077068Y-133705752D01*
X156077068Y-133705752D02*
X155981830Y-133753371D01*
X155981830Y-133753371D02*
X155934211Y-133848609D01*
X155934211Y-133848609D02*
X155934211Y-134372419D01*
X155029449Y-134372419D02*
X155029449Y-133848609D01*
X155029449Y-133848609D02*
X155077068Y-133753371D01*
X155077068Y-133753371D02*
X155172306Y-133705752D01*
X155172306Y-133705752D02*
X155362782Y-133705752D01*
X155362782Y-133705752D02*
X155458020Y-133753371D01*
X155029449Y-134324800D02*
X155124687Y-134372419D01*
X155124687Y-134372419D02*
X155362782Y-134372419D01*
X155362782Y-134372419D02*
X155458020Y-134324800D01*
X155458020Y-134324800D02*
X155505639Y-134229561D01*
X155505639Y-134229561D02*
X155505639Y-134134323D01*
X155505639Y-134134323D02*
X155458020Y-134039085D01*
X155458020Y-134039085D02*
X155362782Y-133991466D01*
X155362782Y-133991466D02*
X155124687Y-133991466D01*
X155124687Y-133991466D02*
X155029449Y-133943847D01*
X154410401Y-134372419D02*
X154505639Y-134324800D01*
X154505639Y-134324800D02*
X154553258Y-134229561D01*
X154553258Y-134229561D02*
X154553258Y-133372419D01*
X153267543Y-134372419D02*
X153267543Y-133372419D01*
X152077068Y-133324800D02*
X152934210Y-134610514D01*
X151743734Y-134372419D02*
X151743734Y-133372419D01*
X151743734Y-133372419D02*
X151362782Y-133372419D01*
X151362782Y-133372419D02*
X151267544Y-133420038D01*
X151267544Y-133420038D02*
X151219925Y-133467657D01*
X151219925Y-133467657D02*
X151172306Y-133562895D01*
X151172306Y-133562895D02*
X151172306Y-133705752D01*
X151172306Y-133705752D02*
X151219925Y-133800990D01*
X151219925Y-133800990D02*
X151267544Y-133848609D01*
X151267544Y-133848609D02*
X151362782Y-133896228D01*
X151362782Y-133896228D02*
X151743734Y-133896228D01*
X159243734Y-142866816D02*
X158767544Y-142866816D01*
X159338972Y-143152531D02*
X159005639Y-142152531D01*
X159005639Y-142152531D02*
X158672306Y-143152531D01*
X157910401Y-142485864D02*
X157910401Y-143152531D01*
X158338972Y-142485864D02*
X158338972Y-143009673D01*
X158338972Y-143009673D02*
X158291353Y-143104912D01*
X158291353Y-143104912D02*
X158196115Y-143152531D01*
X158196115Y-143152531D02*
X158053258Y-143152531D01*
X158053258Y-143152531D02*
X157958020Y-143104912D01*
X157958020Y-143104912D02*
X157910401Y-143057292D01*
X157005639Y-143152531D02*
X157005639Y-142152531D01*
X157005639Y-143104912D02*
X157100877Y-143152531D01*
X157100877Y-143152531D02*
X157291353Y-143152531D01*
X157291353Y-143152531D02*
X157386591Y-143104912D01*
X157386591Y-143104912D02*
X157434210Y-143057292D01*
X157434210Y-143057292D02*
X157481829Y-142962054D01*
X157481829Y-142962054D02*
X157481829Y-142676340D01*
X157481829Y-142676340D02*
X157434210Y-142581102D01*
X157434210Y-142581102D02*
X157386591Y-142533483D01*
X157386591Y-142533483D02*
X157291353Y-142485864D01*
X157291353Y-142485864D02*
X157100877Y-142485864D01*
X157100877Y-142485864D02*
X157005639Y-142533483D01*
X156529448Y-143152531D02*
X156529448Y-142485864D01*
X156529448Y-142152531D02*
X156577067Y-142200150D01*
X156577067Y-142200150D02*
X156529448Y-142247769D01*
X156529448Y-142247769D02*
X156481829Y-142200150D01*
X156481829Y-142200150D02*
X156529448Y-142152531D01*
X156529448Y-142152531D02*
X156529448Y-142247769D01*
X155910401Y-143152531D02*
X156005639Y-143104912D01*
X156005639Y-143104912D02*
X156053258Y-143057292D01*
X156053258Y-143057292D02*
X156100877Y-142962054D01*
X156100877Y-142962054D02*
X156100877Y-142676340D01*
X156100877Y-142676340D02*
X156053258Y-142581102D01*
X156053258Y-142581102D02*
X156005639Y-142533483D01*
X156005639Y-142533483D02*
X155910401Y-142485864D01*
X155910401Y-142485864D02*
X155767544Y-142485864D01*
X155767544Y-142485864D02*
X155672306Y-142533483D01*
X155672306Y-142533483D02*
X155624687Y-142581102D01*
X155624687Y-142581102D02*
X155577068Y-142676340D01*
X155577068Y-142676340D02*
X155577068Y-142962054D01*
X155577068Y-142962054D02*
X155624687Y-143057292D01*
X155624687Y-143057292D02*
X155672306Y-143104912D01*
X155672306Y-143104912D02*
X155767544Y-143152531D01*
X155767544Y-143152531D02*
X155910401Y-143152531D01*
X159243734Y-144476760D02*
X158767544Y-144476760D01*
X159338972Y-144762475D02*
X159005639Y-143762475D01*
X159005639Y-143762475D02*
X158672306Y-144762475D01*
X158338972Y-144762475D02*
X158338972Y-144095808D01*
X158338972Y-144191046D02*
X158291353Y-144143427D01*
X158291353Y-144143427D02*
X158196115Y-144095808D01*
X158196115Y-144095808D02*
X158053258Y-144095808D01*
X158053258Y-144095808D02*
X157958020Y-144143427D01*
X157958020Y-144143427D02*
X157910401Y-144238665D01*
X157910401Y-144238665D02*
X157910401Y-144762475D01*
X157910401Y-144238665D02*
X157862782Y-144143427D01*
X157862782Y-144143427D02*
X157767544Y-144095808D01*
X157767544Y-144095808D02*
X157624687Y-144095808D01*
X157624687Y-144095808D02*
X157529448Y-144143427D01*
X157529448Y-144143427D02*
X157481829Y-144238665D01*
X157481829Y-144238665D02*
X157481829Y-144762475D01*
X157005639Y-144095808D02*
X157005639Y-145095808D01*
X157005639Y-144143427D02*
X156910401Y-144095808D01*
X156910401Y-144095808D02*
X156719925Y-144095808D01*
X156719925Y-144095808D02*
X156624687Y-144143427D01*
X156624687Y-144143427D02*
X156577068Y-144191046D01*
X156577068Y-144191046D02*
X156529449Y-144286284D01*
X156529449Y-144286284D02*
X156529449Y-144571998D01*
X156529449Y-144571998D02*
X156577068Y-144667236D01*
X156577068Y-144667236D02*
X156624687Y-144714856D01*
X156624687Y-144714856D02*
X156719925Y-144762475D01*
X156719925Y-144762475D02*
X156910401Y-144762475D01*
X156910401Y-144762475D02*
X157005639Y-144714856D01*
X155958020Y-144762475D02*
X156053258Y-144714856D01*
X156053258Y-144714856D02*
X156100877Y-144619617D01*
X156100877Y-144619617D02*
X156100877Y-143762475D01*
X155577067Y-144762475D02*
X155577067Y-144095808D01*
X155577067Y-143762475D02*
X155624686Y-143810094D01*
X155624686Y-143810094D02*
X155577067Y-143857713D01*
X155577067Y-143857713D02*
X155529448Y-143810094D01*
X155529448Y-143810094D02*
X155577067Y-143762475D01*
X155577067Y-143762475D02*
X155577067Y-143857713D01*
X155243734Y-144095808D02*
X154862782Y-144095808D01*
X155100877Y-144762475D02*
X155100877Y-143905332D01*
X155100877Y-143905332D02*
X155053258Y-143810094D01*
X155053258Y-143810094D02*
X154958020Y-143762475D01*
X154958020Y-143762475D02*
X154862782Y-143762475D01*
X154529448Y-144762475D02*
X154529448Y-144095808D01*
X154529448Y-143762475D02*
X154577067Y-143810094D01*
X154577067Y-143810094D02*
X154529448Y-143857713D01*
X154529448Y-143857713D02*
X154481829Y-143810094D01*
X154481829Y-143810094D02*
X154529448Y-143762475D01*
X154529448Y-143762475D02*
X154529448Y-143857713D01*
X153672306Y-144714856D02*
X153767544Y-144762475D01*
X153767544Y-144762475D02*
X153958020Y-144762475D01*
X153958020Y-144762475D02*
X154053258Y-144714856D01*
X154053258Y-144714856D02*
X154100877Y-144619617D01*
X154100877Y-144619617D02*
X154100877Y-144238665D01*
X154100877Y-144238665D02*
X154053258Y-144143427D01*
X154053258Y-144143427D02*
X153958020Y-144095808D01*
X153958020Y-144095808D02*
X153767544Y-144095808D01*
X153767544Y-144095808D02*
X153672306Y-144143427D01*
X153672306Y-144143427D02*
X153624687Y-144238665D01*
X153624687Y-144238665D02*
X153624687Y-144333903D01*
X153624687Y-144333903D02*
X154100877Y-144429141D01*
X153196115Y-144762475D02*
X153196115Y-144095808D01*
X153196115Y-144286284D02*
X153148496Y-144191046D01*
X153148496Y-144191046D02*
X153100877Y-144143427D01*
X153100877Y-144143427D02*
X153005639Y-144095808D01*
X153005639Y-144095808D02*
X152910401Y-144095808D01*
X159196115Y-146372419D02*
X159196115Y-145372419D01*
X159196115Y-145372419D02*
X158862782Y-146086704D01*
X158862782Y-146086704D02*
X158529449Y-145372419D01*
X158529449Y-145372419D02*
X158529449Y-146372419D01*
X157910401Y-146372419D02*
X158005639Y-146324800D01*
X158005639Y-146324800D02*
X158053258Y-146277180D01*
X158053258Y-146277180D02*
X158100877Y-146181942D01*
X158100877Y-146181942D02*
X158100877Y-145896228D01*
X158100877Y-145896228D02*
X158053258Y-145800990D01*
X158053258Y-145800990D02*
X158005639Y-145753371D01*
X158005639Y-145753371D02*
X157910401Y-145705752D01*
X157910401Y-145705752D02*
X157767544Y-145705752D01*
X157767544Y-145705752D02*
X157672306Y-145753371D01*
X157672306Y-145753371D02*
X157624687Y-145800990D01*
X157624687Y-145800990D02*
X157577068Y-145896228D01*
X157577068Y-145896228D02*
X157577068Y-146181942D01*
X157577068Y-146181942D02*
X157624687Y-146277180D01*
X157624687Y-146277180D02*
X157672306Y-146324800D01*
X157672306Y-146324800D02*
X157767544Y-146372419D01*
X157767544Y-146372419D02*
X157910401Y-146372419D01*
X156719925Y-146372419D02*
X156719925Y-145372419D01*
X156719925Y-146324800D02*
X156815163Y-146372419D01*
X156815163Y-146372419D02*
X157005639Y-146372419D01*
X157005639Y-146372419D02*
X157100877Y-146324800D01*
X157100877Y-146324800D02*
X157148496Y-146277180D01*
X157148496Y-146277180D02*
X157196115Y-146181942D01*
X157196115Y-146181942D02*
X157196115Y-145896228D01*
X157196115Y-145896228D02*
X157148496Y-145800990D01*
X157148496Y-145800990D02*
X157100877Y-145753371D01*
X157100877Y-145753371D02*
X157005639Y-145705752D01*
X157005639Y-145705752D02*
X156815163Y-145705752D01*
X156815163Y-145705752D02*
X156719925Y-145753371D01*
X155815163Y-145705752D02*
X155815163Y-146372419D01*
X156243734Y-145705752D02*
X156243734Y-146229561D01*
X156243734Y-146229561D02*
X156196115Y-146324800D01*
X156196115Y-146324800D02*
X156100877Y-146372419D01*
X156100877Y-146372419D02*
X155958020Y-146372419D01*
X155958020Y-146372419D02*
X155862782Y-146324800D01*
X155862782Y-146324800D02*
X155815163Y-146277180D01*
X155196115Y-146372419D02*
X155291353Y-146324800D01*
X155291353Y-146324800D02*
X155338972Y-146229561D01*
X155338972Y-146229561D02*
X155338972Y-145372419D01*
X154434210Y-146324800D02*
X154529448Y-146372419D01*
X154529448Y-146372419D02*
X154719924Y-146372419D01*
X154719924Y-146372419D02*
X154815162Y-146324800D01*
X154815162Y-146324800D02*
X154862781Y-146229561D01*
X154862781Y-146229561D02*
X154862781Y-145848609D01*
X154862781Y-145848609D02*
X154815162Y-145753371D01*
X154815162Y-145753371D02*
X154719924Y-145705752D01*
X154719924Y-145705752D02*
X154529448Y-145705752D01*
X154529448Y-145705752D02*
X154434210Y-145753371D01*
X154434210Y-145753371D02*
X154386591Y-145848609D01*
X154386591Y-145848609D02*
X154386591Y-145943847D01*
X154386591Y-145943847D02*
X154862781Y-146039085D01*
X153196115Y-130491466D02*
X152434211Y-130491466D01*
X153196115Y-126991466D02*
X152434211Y-126991466D01*
X152815163Y-127372419D02*
X152815163Y-126610514D01*
X192196115Y-132991466D02*
X191434211Y-132991466D01*
X192196115Y-136491466D02*
X191434211Y-136491466D01*
X191815163Y-136872419D02*
X191815163Y-136110514D01*
X192196115Y-140991466D02*
X191434211Y-140991466D01*
X192196115Y-144491466D02*
X191434211Y-144491466D01*
X191815163Y-144872419D02*
X191815163Y-144110514D01*
X193838972Y-128872419D02*
X193505639Y-129872419D01*
X193505639Y-129872419D02*
X193172306Y-128872419D01*
X192267544Y-129777180D02*
X192315163Y-129824800D01*
X192315163Y-129824800D02*
X192458020Y-129872419D01*
X192458020Y-129872419D02*
X192553258Y-129872419D01*
X192553258Y-129872419D02*
X192696115Y-129824800D01*
X192696115Y-129824800D02*
X192791353Y-129729561D01*
X192791353Y-129729561D02*
X192838972Y-129634323D01*
X192838972Y-129634323D02*
X192886591Y-129443847D01*
X192886591Y-129443847D02*
X192886591Y-129300990D01*
X192886591Y-129300990D02*
X192838972Y-129110514D01*
X192838972Y-129110514D02*
X192791353Y-129015276D01*
X192791353Y-129015276D02*
X192696115Y-128920038D01*
X192696115Y-128920038D02*
X192553258Y-128872419D01*
X192553258Y-128872419D02*
X192458020Y-128872419D01*
X192458020Y-128872419D02*
X192315163Y-128920038D01*
X192315163Y-128920038D02*
X192267544Y-128967657D01*
X191267544Y-129777180D02*
X191315163Y-129824800D01*
X191315163Y-129824800D02*
X191458020Y-129872419D01*
X191458020Y-129872419D02*
X191553258Y-129872419D01*
X191553258Y-129872419D02*
X191696115Y-129824800D01*
X191696115Y-129824800D02*
X191791353Y-129729561D01*
X191791353Y-129729561D02*
X191838972Y-129634323D01*
X191838972Y-129634323D02*
X191886591Y-129443847D01*
X191886591Y-129443847D02*
X191886591Y-129300990D01*
X191886591Y-129300990D02*
X191838972Y-129110514D01*
X191838972Y-129110514D02*
X191791353Y-129015276D01*
X191791353Y-129015276D02*
X191696115Y-128920038D01*
X191696115Y-128920038D02*
X191553258Y-128872419D01*
X191553258Y-128872419D02*
X191458020Y-128872419D01*
X191458020Y-128872419D02*
X191315163Y-128920038D01*
X191315163Y-128920038D02*
X191267544Y-128967657D01*
X190124686Y-129824800D02*
X189981829Y-129872419D01*
X189981829Y-129872419D02*
X189743734Y-129872419D01*
X189743734Y-129872419D02*
X189648496Y-129824800D01*
X189648496Y-129824800D02*
X189600877Y-129777180D01*
X189600877Y-129777180D02*
X189553258Y-129681942D01*
X189553258Y-129681942D02*
X189553258Y-129586704D01*
X189553258Y-129586704D02*
X189600877Y-129491466D01*
X189600877Y-129491466D02*
X189648496Y-129443847D01*
X189648496Y-129443847D02*
X189743734Y-129396228D01*
X189743734Y-129396228D02*
X189934210Y-129348609D01*
X189934210Y-129348609D02*
X190029448Y-129300990D01*
X190029448Y-129300990D02*
X190077067Y-129253371D01*
X190077067Y-129253371D02*
X190124686Y-129158133D01*
X190124686Y-129158133D02*
X190124686Y-129062895D01*
X190124686Y-129062895D02*
X190077067Y-128967657D01*
X190077067Y-128967657D02*
X190029448Y-128920038D01*
X190029448Y-128920038D02*
X189934210Y-128872419D01*
X189934210Y-128872419D02*
X189696115Y-128872419D01*
X189696115Y-128872419D02*
X189553258Y-128920038D01*
X188696115Y-129205752D02*
X188696115Y-129872419D01*
X189124686Y-129205752D02*
X189124686Y-129729561D01*
X189124686Y-129729561D02*
X189077067Y-129824800D01*
X189077067Y-129824800D02*
X188981829Y-129872419D01*
X188981829Y-129872419D02*
X188838972Y-129872419D01*
X188838972Y-129872419D02*
X188743734Y-129824800D01*
X188743734Y-129824800D02*
X188696115Y-129777180D01*
X188219924Y-129205752D02*
X188219924Y-130205752D01*
X188219924Y-129253371D02*
X188124686Y-129205752D01*
X188124686Y-129205752D02*
X187934210Y-129205752D01*
X187934210Y-129205752D02*
X187838972Y-129253371D01*
X187838972Y-129253371D02*
X187791353Y-129300990D01*
X187791353Y-129300990D02*
X187743734Y-129396228D01*
X187743734Y-129396228D02*
X187743734Y-129681942D01*
X187743734Y-129681942D02*
X187791353Y-129777180D01*
X187791353Y-129777180D02*
X187838972Y-129824800D01*
X187838972Y-129824800D02*
X187934210Y-129872419D01*
X187934210Y-129872419D02*
X188124686Y-129872419D01*
X188124686Y-129872419D02*
X188219924Y-129824800D01*
X187315162Y-129205752D02*
X187315162Y-130205752D01*
X187315162Y-129253371D02*
X187219924Y-129205752D01*
X187219924Y-129205752D02*
X187029448Y-129205752D01*
X187029448Y-129205752D02*
X186934210Y-129253371D01*
X186934210Y-129253371D02*
X186886591Y-129300990D01*
X186886591Y-129300990D02*
X186838972Y-129396228D01*
X186838972Y-129396228D02*
X186838972Y-129681942D01*
X186838972Y-129681942D02*
X186886591Y-129777180D01*
X186886591Y-129777180D02*
X186934210Y-129824800D01*
X186934210Y-129824800D02*
X187029448Y-129872419D01*
X187029448Y-129872419D02*
X187219924Y-129872419D01*
X187219924Y-129872419D02*
X187315162Y-129824800D01*
X186267543Y-129872419D02*
X186362781Y-129824800D01*
X186362781Y-129824800D02*
X186410400Y-129729561D01*
X186410400Y-129729561D02*
X186410400Y-128872419D01*
X185981828Y-129205752D02*
X185743733Y-129872419D01*
X185505638Y-129205752D02*
X185743733Y-129872419D01*
X185743733Y-129872419D02*
X185838971Y-130110514D01*
X185838971Y-130110514D02*
X185886590Y-130158133D01*
X185886590Y-130158133D02*
X185981828Y-130205752D01*
X193743734Y-148324800D02*
X193600877Y-148372419D01*
X193600877Y-148372419D02*
X193362782Y-148372419D01*
X193362782Y-148372419D02*
X193267544Y-148324800D01*
X193267544Y-148324800D02*
X193219925Y-148277180D01*
X193219925Y-148277180D02*
X193172306Y-148181942D01*
X193172306Y-148181942D02*
X193172306Y-148086704D01*
X193172306Y-148086704D02*
X193219925Y-147991466D01*
X193219925Y-147991466D02*
X193267544Y-147943847D01*
X193267544Y-147943847D02*
X193362782Y-147896228D01*
X193362782Y-147896228D02*
X193553258Y-147848609D01*
X193553258Y-147848609D02*
X193648496Y-147800990D01*
X193648496Y-147800990D02*
X193696115Y-147753371D01*
X193696115Y-147753371D02*
X193743734Y-147658133D01*
X193743734Y-147658133D02*
X193743734Y-147562895D01*
X193743734Y-147562895D02*
X193696115Y-147467657D01*
X193696115Y-147467657D02*
X193648496Y-147420038D01*
X193648496Y-147420038D02*
X193553258Y-147372419D01*
X193553258Y-147372419D02*
X193315163Y-147372419D01*
X193315163Y-147372419D02*
X193172306Y-147420038D01*
X192743734Y-148372419D02*
X192743734Y-147705752D01*
X192743734Y-147372419D02*
X192791353Y-147420038D01*
X192791353Y-147420038D02*
X192743734Y-147467657D01*
X192743734Y-147467657D02*
X192696115Y-147420038D01*
X192696115Y-147420038D02*
X192743734Y-147372419D01*
X192743734Y-147372419D02*
X192743734Y-147467657D01*
X191838973Y-147705752D02*
X191838973Y-148515276D01*
X191838973Y-148515276D02*
X191886592Y-148610514D01*
X191886592Y-148610514D02*
X191934211Y-148658133D01*
X191934211Y-148658133D02*
X192029449Y-148705752D01*
X192029449Y-148705752D02*
X192172306Y-148705752D01*
X192172306Y-148705752D02*
X192267544Y-148658133D01*
X191838973Y-148324800D02*
X191934211Y-148372419D01*
X191934211Y-148372419D02*
X192124687Y-148372419D01*
X192124687Y-148372419D02*
X192219925Y-148324800D01*
X192219925Y-148324800D02*
X192267544Y-148277180D01*
X192267544Y-148277180D02*
X192315163Y-148181942D01*
X192315163Y-148181942D02*
X192315163Y-147896228D01*
X192315163Y-147896228D02*
X192267544Y-147800990D01*
X192267544Y-147800990D02*
X192219925Y-147753371D01*
X192219925Y-147753371D02*
X192124687Y-147705752D01*
X192124687Y-147705752D02*
X191934211Y-147705752D01*
X191934211Y-147705752D02*
X191838973Y-147753371D01*
X191362782Y-147705752D02*
X191362782Y-148372419D01*
X191362782Y-147800990D02*
X191315163Y-147753371D01*
X191315163Y-147753371D02*
X191219925Y-147705752D01*
X191219925Y-147705752D02*
X191077068Y-147705752D01*
X191077068Y-147705752D02*
X190981830Y-147753371D01*
X190981830Y-147753371D02*
X190934211Y-147848609D01*
X190934211Y-147848609D02*
X190934211Y-148372419D01*
X190029449Y-148372419D02*
X190029449Y-147848609D01*
X190029449Y-147848609D02*
X190077068Y-147753371D01*
X190077068Y-147753371D02*
X190172306Y-147705752D01*
X190172306Y-147705752D02*
X190362782Y-147705752D01*
X190362782Y-147705752D02*
X190458020Y-147753371D01*
X190029449Y-148324800D02*
X190124687Y-148372419D01*
X190124687Y-148372419D02*
X190362782Y-148372419D01*
X190362782Y-148372419D02*
X190458020Y-148324800D01*
X190458020Y-148324800D02*
X190505639Y-148229561D01*
X190505639Y-148229561D02*
X190505639Y-148134323D01*
X190505639Y-148134323D02*
X190458020Y-148039085D01*
X190458020Y-148039085D02*
X190362782Y-147991466D01*
X190362782Y-147991466D02*
X190124687Y-147991466D01*
X190124687Y-147991466D02*
X190029449Y-147943847D01*
X189410401Y-148372419D02*
X189505639Y-148324800D01*
X189505639Y-148324800D02*
X189553258Y-148229561D01*
X189553258Y-148229561D02*
X189553258Y-147372419D01*
X188077067Y-147372419D02*
X187886591Y-147372419D01*
X187886591Y-147372419D02*
X187791353Y-147420038D01*
X187791353Y-147420038D02*
X187696115Y-147515276D01*
X187696115Y-147515276D02*
X187648496Y-147705752D01*
X187648496Y-147705752D02*
X187648496Y-148039085D01*
X187648496Y-148039085D02*
X187696115Y-148229561D01*
X187696115Y-148229561D02*
X187791353Y-148324800D01*
X187791353Y-148324800D02*
X187886591Y-148372419D01*
X187886591Y-148372419D02*
X188077067Y-148372419D01*
X188077067Y-148372419D02*
X188172305Y-148324800D01*
X188172305Y-148324800D02*
X188267543Y-148229561D01*
X188267543Y-148229561D02*
X188315162Y-148039085D01*
X188315162Y-148039085D02*
X188315162Y-147705752D01*
X188315162Y-147705752D02*
X188267543Y-147515276D01*
X188267543Y-147515276D02*
X188172305Y-147420038D01*
X188172305Y-147420038D02*
X188077067Y-147372419D01*
X186505639Y-147324800D02*
X187362781Y-148610514D01*
X186172305Y-148372419D02*
X186172305Y-147372419D01*
X186172305Y-147372419D02*
X185791353Y-147372419D01*
X185791353Y-147372419D02*
X185696115Y-147420038D01*
X185696115Y-147420038D02*
X185648496Y-147467657D01*
X185648496Y-147467657D02*
X185600877Y-147562895D01*
X185600877Y-147562895D02*
X185600877Y-147705752D01*
X185600877Y-147705752D02*
X185648496Y-147800990D01*
X185648496Y-147800990D02*
X185696115Y-147848609D01*
X185696115Y-147848609D02*
X185791353Y-147896228D01*
X185791353Y-147896228D02*
X186172305Y-147896228D01*
M02*
